# xmcd
#
# Track frame offsets: 
#        150
#        10462
#        22213
#        39691
#        51783
#        64573
#        80533
#        95203
#        117538
#        129595
#        153905
#        168680
#        177824
#        196481
#        212986
#        230378
#        249988
#        277013
#
# Disc length: 3860 seconds
#
# Revision: 0
# Processed by: cddbd v1.5.2PL0 Copyright (c) Steve Scherf et al.
# Submitted via: ExactAudioCopy v1.0b4
#
DISCID=090f1212
DTITLE=Various Artist - Blues From Los Angles (1980 - 1991) Vol 1
DYEAR=2013
DGENRE=Blues
TTITLE0=Steady - William Clarke
TTITLE1=Lena Mae - Long Gone Miles
TTITLE2=I Miss You So - Cordell Boyette
TTITLE3=It Ain't Nothin' To You - George "Harmonica' Smith
TTITLE4=Tribute To T-Bone Walker - Hollywood Fats Band
TTITLE5=So Glad I'm Livin' - Johnny Dyer
TTITLE6=Goin' Upside Your Head - Smokey Wilson
TTITLE7=Goodbye Everybody - Long Gone Miles
TTITLE8=I Shoulda Kept On Runnin' - Rasheed Abdullah
TTITLE9=The Little Girl I'm Loving - William Clarke
TTITLE10=Fine Little Mama - Smokey Wilson
TTITLE11=Rpm Boogie - Hollywood Fats Band
TTITLE12=Ain't No Love - Long Gone Miles
TTITLE13=I Get So Lonesome - Curtis Griffin
TTITLE14=Feel Like A King - William Clarke
TTITLE15=Hard Times  - George 'Harmonica' Smith
TTITLE16=Racetrack Blues - Rasheed Abdullah
TTITLE17=Hittin' Heavy - William Clarke
EXTD=
EXTT0=
EXTT1=
EXTT2=
EXTT3=
EXTT4=
EXTT5=
EXTT6=
EXTT7=
EXTT8=
EXTT9=
EXTT10=
EXTT11=
EXTT12=
EXTT13=
EXTT14=
EXTT15=
EXTT16=
EXTT17=
PLAYORDER=
